<?xml version="1.0" encoding="UTF-8"?>
<!--Font Awesome Free 5.9.0 by @fontawesome - https://fontawesome.comLicense - https://fontawesome.com/license/free (Icons: CC BY 4.0, Fonts: SIL OFL 1.1, Code: MIT License)--><svg
    xmlns="http://www.w3.org/2000/svg" style="display: none;">
  <symbol id="iso" viewBox="0 0 26.458 26.458">
      <circle cx="13.229" cy="13.229" r="13.229"/><path d="M3.64 10.718q0-.184.072-.348.072-.164.184-.287.123-.123.276-.194.154-.072.317-.072.164 0 .317.072.154.072.266.194.123.123.194.287.072.164.072.348 0 .184-.072.348-.072.164-.194.287-.113.123-.266.194-.154.072-.317.072-.164 0-.317-.072-.154-.072-.276-.194-.113-.123-.184-.287-.072-.164-.072-.348zm-.665 0q0 .317.113.594.123.276.327.48.205.205.48.327.276.113.594.113.317 0 .594-.113.276-.123.48-.327.205-.205.317-.48.123-.276.123-.594 0-.317-.123-.594-.113-.276-.317-.48-.205-.205-.48-.317-.276-.123-.594-.123-.317 0-.594.123-.276.113-.48.317-.205.205-.327.48-.113.276-.113.594zm5.727-.318V9.204H7.25V10.4zm-1.453.82v5.3h1.453v-5.3zm3.845 3.57h-1.38q.02.532.235.9.225.348.563.563.348.215.788.307.44.092.9.092.45 0 .88-.092.44-.082.778-.297.338-.215.542-.563.215-.358.215-.88 0-.368-.143-.614-.143-.256-.38-.42-.235-.174-.542-.276-.297-.102-.614-.174-.307-.072-.604-.133-.297-.06-.532-.133-.225-.082-.368-.205-.143-.123-.143-.317 0-.164.082-.256.082-.102.194-.153.123-.05.266-.06.143-.02.266-.02.4 0 .675.153.287.143.317.563h1.382q-.04-.5-.256-.808-.205-.327-.522-.522-.317-.194-.727-.276-.4-.082-.83-.082-.43 0-.84.082-.4.072-.737.266-.327.184-.532.512-.194.327-.194.84 0 .348.143.594.143.235.38.4.235.153.532.256.307.092.624.164.778.164 1.208.327.44.164.44.5 0 .194-.092.327-.092.123-.235.205-.133.072-.307.113-.164.03-.317.03-.215 0-.42-.05-.194-.05-.348-.154-.154-.113-.256-.276-.092-.174-.092-.4zm5.78-.92q0-.317.06-.624.06-.307.205-.542.153-.235.4-.38.246-.153.614-.153.368 0 .614.153.256.143.4.38.153.235.215.542.06.307.06.624 0 .317-.06.624-.06.297-.215.542-.143.235-.4.38-.246.143-.614.143-.368 0-.614-.143-.246-.143-.4-.38-.143-.246-.205-.542-.06-.307-.06-.624zm-1.453 0q0 .634.194 1.146.194.512.553.88.358.358.86.553.5.194 1.126.194.624 0 1.126-.194.512-.194.87-.553.358-.368.553-.88.194-.512.194-1.146 0-.634-.194-1.146-.194-.522-.553-.88-.358-.368-.87-.563-.5-.205-1.126-.205-.624 0-1.126.205-.5.194-.86.563-.358.358-.553.88-.194.512-.194 1.146z" fill="#fff"/>
  </symbol>
  <symbol id="fa-undo-alt" viewBox="0 0 512 512">
    <path d="M255.545 8c-66.269.119-126.438 26.233-170.86 68.685L48.971 40.971C33.851 25.851 8 36.559 8 57.941V192c0 13.255 10.745 24 24 24h134.059c21.382 0 32.09-25.851 16.971-40.971l-41.75-41.75c30.864-28.899 70.801-44.907 113.23-45.273 92.398-.798 170.283 73.977 169.484 169.442C423.236 348.009 349.816 424 256 424c-41.127 0-79.997-14.678-110.63-41.556-4.743-4.161-11.906-3.908-16.368.553L89.34 422.659c-4.872 4.872-4.631 12.815.482 17.433C133.798 479.813 192.074 504 256 504c136.966 0 247.999-111.033 248-247.998C504.001 119.193 392.354 7.755 255.545 8z"/>
  </symbol>
  <symbol id="fa-info" viewBox="0 0 192 512">
    <path d="M20 424.229h20V279.771H20c-11.046 0-20-8.954-20-20V212c0-11.046 8.954-20 20-20h112c11.046 0 20 8.954 20 20v212.229h20c11.046 0 20 8.954 20 20V492c0 11.046-8.954 20-20 20H20c-11.046 0-20-8.954-20-20v-47.771c0-11.046 8.954-20 20-20zM96 0C56.235 0 24 32.235 24 72s32.235 72 72 72 72-32.235 72-72S135.764 0 96 0z"/> 
  </symbol>
  <symbol id="fa-exclamation-triangle" viewBox="0 0 576 512">
    <path d="M569.517 440.013C587.975 472.007 564.806 512 527.94 512H48.054c-36.937 0-59.999-40.055-41.577-71.987L246.423 23.985c18.467-32.009 64.72-31.951 83.154 0l239.94 416.028zM288 354c-25.405 0-46 20.595-46 46s20.595 46 46 46 46-20.595 46-46-20.595-46-46-46zm-43.673-165.346l7.418 136c.347 6.364 5.609 11.346 11.982 11.346h48.546c6.373 0 11.635-4.982 11.982-11.346l7.418-136c.375-6.874-5.098-12.654-11.982-12.654h-63.383c-6.884 0-12.356 5.78-11.981 12.654z"/>
  </symbol>
  <symbol id="fa-flask" viewBox="0 0 448 512">
    <path d="M437.2 403.5L320 215V64h8c13.3 0 24-10.7 24-24V24c0-13.3-10.7-24-24-24H120c-13.3 0-24 10.7-24 24v16c0 13.3 10.7 24 24 24h8v151L10.8 403.5C-18.5 450.6 15.3 512 70.9 512h306.2c55.7 0 89.4-61.5 60.1-108.5zM137.9 320l48.2-77.6c3.7-5.2 5.8-11.6 5.8-18.4V64h64v160c0 6.9 2.2 13.2 5.8 18.4l48.2 77.6h-172z"/>
  </symbol>
  <symbol id="fa-arrow-up" viewBox="0 0 448 512">
      <path d="M34.9 289.5l-22.2-22.2c-9.4-9.4-9.4-24.6 0-33.9L207 39c9.4-9.4 24.6-9.4 33.9 0l194.3 194.3c9.4 9.4 9.4 24.6 0 33.9L413 289.4c-9.5 9.5-25 9.3-34.3-.4L264 168.6V456c0 13.3-10.7 24-24 24h-32c-13.3 0-24-10.7-24-24V168.6L69.2 289.1c-9.3 9.8-24.8 10-34.3.4z"/>
  </symbol>
  <symbol id="fa-hashtag" viewBox="0 0 448 512">
      <path d="M440.667 182.109l7.143-40c1.313-7.355-4.342-14.109-11.813-14.109h-74.81l14.623-81.891C377.123 38.754 371.468 32 363.997 32h-40.632a12 12 0 0 0-11.813 9.891L296.175 128H197.54l14.623-81.891C213.477 38.754 207.822 32 200.35 32h-40.632a12 12 0 0 0-11.813 9.891L132.528 128H53.432a12 12 0 0 0-11.813 9.891l-7.143 40C33.163 185.246 38.818 192 46.289 192h74.81L98.242 320H19.146a12 12 0 0 0-11.813 9.891l-7.143 40C-1.123 377.246 4.532 384 12.003 384h74.81L72.19 465.891C70.877 473.246 76.532 480 84.003 480h40.632a12 12 0 0 0 11.813-9.891L151.826 384h98.634l-14.623 81.891C234.523 473.246 240.178 480 247.65 480h40.632a12 12 0 0 0 11.813-9.891L315.472 384h79.096a12 12 0 0 0 11.813-9.891l7.143-40c1.313-7.355-4.342-14.109-11.813-14.109h-74.81l22.857-128h79.096a12 12 0 0 0 11.813-9.891zM261.889 320h-98.634l22.857-128h98.634l-22.857 128z"/>
  </symbol>
  <symbol id="fa-film" viewBox="0 0 512 512">
      <path d="M488 64h-8v20c0 6.6-5.4 12-12 12h-40c-6.6 0-12-5.4-12-12V64H96v20c0 6.6-5.4 12-12 12H44c-6.6 0-12-5.4-12-12V64h-8C10.7 64 0 74.7 0 88v336c0 13.3 10.7 24 24 24h8v-20c0-6.6 5.4-12 12-12h40c6.6 0 12 5.4 12 12v20h320v-20c0-6.6 5.4-12 12-12h40c6.6 0 12 5.4 12 12v20h8c13.3 0 24-10.7 24-24V88c0-13.3-10.7-24-24-24zM96 372c0 6.6-5.4 12-12 12H44c-6.6 0-12-5.4-12-12v-40c0-6.6 5.4-12 12-12h40c6.6 0 12 5.4 12 12v40zm0-96c0 6.6-5.4 12-12 12H44c-6.6 0-12-5.4-12-12v-40c0-6.6 5.4-12 12-12h40c6.6 0 12 5.4 12 12v40zm0-96c0 6.6-5.4 12-12 12H44c-6.6 0-12-5.4-12-12v-40c0-6.6 5.4-12 12-12h40c6.6 0 12 5.4 12 12v40zm272 208c0 6.6-5.4 12-12 12H156c-6.6 0-12-5.4-12-12v-96c0-6.6 5.4-12 12-12h200c6.6 0 12 5.4 12 12v96zm0-168c0 6.6-5.4 12-12 12H156c-6.6 0-12-5.4-12-12v-96c0-6.6 5.4-12 12-12h200c6.6 0 12 5.4 12 12v96zm112 152c0 6.6-5.4 12-12 12h-40c-6.6 0-12-5.4-12-12v-40c0-6.6 5.4-12 12-12h40c6.6 0 12 5.4 12 12v40zm0-96c0 6.6-5.4 12-12 12h-40c-6.6 0-12-5.4-12-12v-40c0-6.6 5.4-12 12-12h40c6.6 0 12 5.4 12 12v40zm0-96c0 6.6-5.4 12-12 12h-40c-6.6 0-12-5.4-12-12v-40c0-6.6 5.4-12 12-12h40c6.6 0 12 5.4 12 12v40z"/>
  </symbol>
  <symbol id="fa-upload" viewBox="0 0 512 512">
    <path d="M296 384h-80c-13.3 0-24-10.7-24-24V192h-87.7c-17.8 0-26.7-21.5-14.1-34.1L242.3 5.7c7.5-7.5 19.8-7.5 27.3 0l152.2 152.2c12.6 12.6 3.7 34.1-14.1 34.1H320v168c0 13.3-10.7 24-24 24zm216-8v112c0 13.3-10.7 24-24 24H24c-13.3 0-24-10.7-24-24V376c0-13.3 10.7-24 24-24h136v8c0 30.9 25.1 56 56 56h80c30.9 0 56-25.1 56-56v-8h136c13.3 0 24 10.7 24 24zm-124 88c0-11-9-20-20-20s-20 9-20 20 9 20 20 20 20-9 20-20zm64 0c0-11-9-20-20-20s-20 9-20 20 9 20 20 20 20-9 20-20z"/>
  </symbol>
  <symbol id="mdi-flask-outline" viewBox="0 0 24 24">
  <path d="M5,19A1,1 0 0,0 6,20H18A1,1 0 0,0 19,19C19,18.79 18.93,18.59 18.82,18.43L13,8.35V4H11V8.35L5.18,18.43C5.07,18.59 5,18.79 5,19M6,22A3,3 0 0,1 3,19C3,18.4 3.18,17.84 3.5,17.37L9,7.81V6A1,1 0 0,1 8,5V4A2,2 0 0,1 10,2H14A2,2 0 0,1 16,4V5A1,1 0 0,1 15,6V7.81L20.5,17.37C20.82,17.84 21,18.4 21,19A3,3 0 0,1 18,22H6M13,16L14.34,14.66L16.27,18H7.73L10.39,13.39L13,16M12.5,12A0.5,0.5 0 0,1 13,12.5A0.5,0.5 0 0,1 12.5,13A0.5,0.5 0 0,1 12,12.5A0.5,0.5 0 0,1 12.5,12Z" />
  </symbol>
  <symbol id="mdi-flask-outline-remove" viewBox="0 0 24 24">
      <path d="M15.46 15.88L16.88 14.46L19 16.59L21.12 14.47L22.53 15.88L20.41 18L22.54 20.12L21.12 21.54L19 19.41L16.88 21.53L15.47 20.12L17.59 18L15.46 15.88M5 19C5 19.55 5.45 20 6 20H13.34C13.61 20.75 14 21.42 14.53 22H6C4.34 22 3 20.66 3 19C3 18.4 3.18 17.84 3.5 17.36L9 7.81V6C8.45 6 8 5.55 8 5V4C8 2.9 8.9 2 10 2H14C15.11 2 16 2.9 16 4V5C16 5.55 15.55 6 15 6V7.81L17.5 12.18C16.86 12.35 16.24 12.63 15.69 13L13 8.35V4H11V8.35L5.18 18.43C5.07 18.59 5 18.79 5 19M13 16L13.58 15.42C13.21 16.2 13 17.08 13 18H7.73L10.39 13.39L13 16M12.5 12C12.78 12 13 12.22 13 12.5C13 12.78 12.78 13 12.5 13C12.22 13 12 12.78 12 12.5C12 12.22 12.22 12 12.5 12Z" />
  </symbol>
  <symbol id="mdi-scanner" viewBox="0 0 24 24">
      <path d="M4.2,10.7L19.8,5L20.5,6.9L6.4,12H19A2,2 0 0,1 21,14V18A2,2 0 0,1 19,20H5A2,2 0 0,1 3,18V12.5C3,11.7 3.5,10.9 4.2,10.7M17,17H19V15H17V17M5,17H15V15H5V17Z" />
  </symbol>
  <symbol id="mdi-scanner-off" viewBox="0 0 24 24">
      <path d="M2,5.27L3.28,4L20,20.72L18.73,22L16.73,20H5A2,2 0 0,1 3,18V12.5C3,11.7 3.5,10.9 4.2,10.7L6.57,9.84L2,5.27M6.4,12H8.73L8.11,11.38L6.4,12M5,15V17H13.73L11.73,15H5M19.8,5L20.5,6.9L11.85,10.03L10.3,8.47L19.8,5M19,12A2,2 0 0,1 21,14V18C21,18.34 20.91,18.66 20.76,18.94L19,17.18V15H16.82L13.82,12H19Z" />
  </symbol>
  <symbol id="mdi-account" viewBox="0 0 24 24">
      <path d="M12,4A4,4 0 0,1 16,8A4,4 0 0,1 12,12A4,4 0 0,1 8,8A4,4 0 0,1 12,4M12,14C16.42,14 20,15.79 20,18V20H4V18C4,15.79 7.58,14 12,14Z" />
  </symbol>
  <symbol id="mdi-dots-vertical" viewBox="0 0 24 24">
      <path d="M12,16A2,2 0 0,1 14,18A2,2 0 0,1 12,20A2,2 0 0,1 10,18A2,2 0 0,1 12,16M12,10A2,2 0 0,1 14,12A2,2 0 0,1 12,14A2,2 0 0,1 10,12A2,2 0 0,1 12,10M12,4A2,2 0 0,1 14,6A2,2 0 0,1 12,8A2,2 0 0,1 10,6A2,2 0 0,1 12,4Z" />
  </symbol>
  <symbol id="mdi-email" viewBox="0 0 24 24">
      <path d="M20,8L12,13L4,8V6L12,11L20,6M20,4H4C2.89,4 2,4.89 2,6V18A2,2 0 0,0 4,20H20A2,2 0 0,0 22,18V6C22,4.89 21.1,4 20,4Z" />
  </symbol>
  <symbol id="mdi-lock" viewBox="0 0 24 24">
      <path d="M12,17A2,2 0 0,0 14,15C14,13.89 13.1,13 12,13A2,2 0 0,0 10,15A2,2 0 0,0 12,17M18,8A2,2 0 0,1 20,10V20A2,2 0 0,1 18,22H6A2,2 0 0,1 4,20V10C4,8.89 4.9,8 6,8H7V6A5,5 0 0,1 12,1A5,5 0 0,1 17,6V8H18M12,3A3,3 0 0,0 9,6V8H15V6A3,3 0 0,0 12,3Z" />
  </symbol>
  <symbol id="mdi-image" viewBox="0 0 24 24">
      <path d="M8.5,13.5L11,16.5L14.5,12L19,18H5M21,19V5C21,3.89 20.1,3 19,3H5A2,2 0 0,0 3,5V19A2,2 0 0,0 5,21H19A2,2 0 0,0 21,19Z" />
  </symbol>
  <symbol id="mdi-chevron-right" viewBox="0 0 24 24">
      <path d="M8.59,16.58L13.17,12L8.59,7.41L10,6L16,12L10,18L8.59,16.58Z" />
  </symbol>
  <symbol id="mdi-chevron-left" viewBox="0 0 24 24">
      <path d="M15.41,16.58L10.83,12L15.41,7.41L14,6L8,12L14,18L15.41,16.58Z" />
  </symbol>
  <symbol id="mdi-film" viewBox="0 0 24 24">
     <path d="M3.5,3H5V1.8C5,1.36 5.36,1 5.8,1H10.2C10.64,1 11,1.36 11,1.8V3H12.5A1.5,1.5 0 0,1 14,4.5V5H22V20H14V20.5A1.5,1.5 0 0,1 12.5,22H3.5A1.5,1.5 0 0,1 2,20.5V4.5A1.5,1.5 0 0,1 3.5,3M18,7V9H20V7H18M14,7V9H16V7H14M10,7V9H12V7H10M14,16V18H16V16H14M18,16V18H20V16H18M10,16V18H12V16H10Z" />
  </symbol>
  <symbol id="mdi-close" viewBox="0 0 24 24">
    <path d="M19,6.41L17.59,5L12,10.59L6.41,5L5,6.41L10.59,12L5,17.59L6.41,19L12,13.41L17.59,19L19,17.59L13.41,12L19,6.41Z" />
  </symbol>
  <symbol id="mdi-information" viewBox="0 0 24 24">
    <path d="M13,9H11V7H13M13,17H11V11H13M12,2A10,10 0 0,0 2,12A10,10 0 0,0 12,22A10,10 0 0,0 22,12A10,10 0 0,0 12,2Z" />
  </symbol>
  <symbol id="mdi-menu-down" viewBox="0 0 24 24">
        <path d="M7,10L12,15L17,10H7Z" />
  </symbol>
  <symbol id="mdi-cart" viewBox="0 0 24 24">
        <path d="M17,18C15.89,18 15,18.89 15,20A2,2 0 0,0 17,22A2,2 0 0,0 19,20C19,18.89 18.1,18 17,18M1,2V4H3L6.6,11.59L5.24,14.04C5.09,14.32 5,14.65 5,15A2,2 0 0,0 7,17H19V15H7.42A0.25,0.25 0 0,1 7.17,14.75C7.17,14.7 7.18,14.66 7.2,14.63L8.1,13H15.55C16.3,13 16.96,12.58 17.3,11.97L20.88,5.5C20.95,5.34 21,5.17 21,5A1,1 0 0,0 20,4H5.21L4.27,2M7,18C5.89,18 5,18.89 5,20A2,2 0 0,0 7,22A2,2 0 0,0 9,20C9,18.89 8.1,18 7,18Z" />
  </symbol>
  <symbol id="mdi-content-cut" viewBox="0 0 24 24">
        <path d="M19,3L13,9L15,11L22,4V3M12,12.5A0.5,0.5 0 0,1 11.5,12A0.5,0.5 0 0,1 12,11.5A0.5,0.5 0 0,1 12.5,12A0.5,0.5 0 0,1 12,12.5M6,20A2,2 0 0,1 4,18C4,16.89 4.9,16 6,16A2,2 0 0,1 8,18C8,19.11 7.1,20 6,20M6,8A2,2 0 0,1 4,6C4,4.89 4.9,4 6,4A2,2 0 0,1 8,6C8,7.11 7.1,8 6,8M9.64,7.64C9.87,7.14 10,6.59 10,6A4,4 0 0,0 6,2A4,4 0 0,0 2,6A4,4 0 0,0 6,10C6.59,10 7.14,9.87 7.64,9.64L10,12L7.64,14.36C7.14,14.13 6.59,14 6,14A4,4 0 0,0 2,18A4,4 0 0,0 6,22A4,4 0 0,0 10,18C10,17.41 9.87,16.86 9.64,16.36L12,14L19,21H22V20L9.64,7.64Z" />
  </symbol>
  <symbol id="mdi-scissors-cutting" viewBox="0 0 24 24">
        <path d="M11,21H7V19H11V21M15.5,19H17V21H13V19H13.2L11.8,12.9L9.3,13.5C9.2,14 9,14.4 8.8,14.8C7.9,16.3 6,16.7 4.5,15.8C3,14.9 2.6,13 3.5,11.5C4.4,10 6.3,9.6 7.8,10.5C8.2,10.7 8.5,11.1 8.7,11.4L11.2,10.8L10.6,8.3C10.2,8.2 9.8,8 9.4,7.8C8,6.9 7.5,5 8.4,3.5C9.3,2 11.2,1.6 12.7,2.5C14.2,3.4 14.6,5.3 13.7,6.8C13.5,7.2 13.1,7.5 12.8,7.7L15.5,19M7,11.8C6.3,11.3 5.3,11.6 4.8,12.3C4.3,13 4.6,14 5.3,14.4C6,14.9 7,14.7 7.5,13.9C7.9,13.2 7.7,12.2 7,11.8M12.4,6C12.9,5.3 12.6,4.3 11.9,3.8C11.2,3.3 10.2,3.6 9.7,4.3C9.3,5 9.5,6 10.3,6.5C11,6.9 12,6.7 12.4,6M12.8,11.3C12.6,11.2 12.4,11.2 12.3,11.4C12.2,11.6 12.2,11.8 12.4,11.9C12.6,12 12.8,12 12.9,11.8C13.1,11.6 13,11.4 12.8,11.3M21,8.5L14.5,10L15,12.2L22.5,10.4L23,9.7L21,8.5M23,19H19V21H23V19M5,19H1V21H5V19Z" />
  </symbol>
  <symbol id="mdi-view-list" viewBox="0 0 24 24">
        <path d="M9,5V9H21V5M9,19H21V15H9M9,14H21V10H9M4,9H8V5H4M4,19H8V15H4M4,14H8V10H4V14Z" />
  </symbol>
  <symbol id="mdi-filmstrip-box-multiple" viewBox="0 0 24 24">
        <path d="M4,6H2V20A2,2 0 0,0 4,22H18V20H4V6M20,2H8A2,2 0 0,0 6,4V16A2,2 0 0,0 8,18H20A2,2 0 0,0 22,16V4A2,2 0 0,0 20,2M10,15H8V13H10V15M10,11H8V9H10V11M10,7H8V5H10V7M20,15H18V13H20V15M20,11H18V9H20V11M20,7H18V5H20V7Z" />
  </symbol>
</svg>
